<?xml version="1.0" encoding="utf-8"?>
<!-- Generator: Adobe Illustrator 25.2.1, SVG Export Plug-In . SVG Version: 6.00 Build 0)  -->
<svg version="1.1" id="Layer_1" xmlns="http://www.w3.org/2000/svg" xmlns:xlink="http://www.w3.org/1999/xlink" x="0px" y="0px"
	 viewBox="0 0 700 700" style="enable-background:new 0 0 700 700;" xml:space="preserve">
<g>
	<path d="M350,401.3c28.3,0,51.3-23,51.3-51.3c0-28.3-23-51.3-51.3-51.3c-28.4,0-51.3,23-51.3,51.3
		C298.7,378.3,321.7,401.3,350,401.3z M460.9,251c15.5,0,28-12.5,28-28c0-15.5-12.5-28-28-28c-15.4,0-27.9,12.5-27.9,28
		C432.9,238.4,445.4,251,460.9,251z M452.7,350c0,56.7-46,102.7-102.7,102.7s-102.7-46-102.7-102.7c0-11.9,2.1-23.4,5.9-34h-49.6
		v139.2c0,24,19.7,43.7,43.7,43.7h198.2c24,0,43.7-19.7,43.7-43.7V272.2h-72.2C438.8,291.1,452.7,318.9,452.7,350L452.7,350z M350,0
		C156.7,0,0,156.7,0,350s156.7,350,350,350s350-156.7,350-350S543.3,0,350,0L350,0z M536.9,491.9c0,32.1-26.2,58.3-58.3,58.3H214.2
		c-32.1,0-58.3-26.3-58.3-58.3V227.5c0-32.1,26.3-58.3,58.3-58.3h264.4c32.1,0,58.3,26.2,58.3,58.3L536.9,491.9L536.9,491.9z"/>
</g>
</svg>
